<svg width="82" height="90" viewBox="0 0 82 90" fill="none" xmlns="http://www.w3.org/2000/svg">
<path d="M49.9924 21.4248C36.467 25.0975 23.5517 9.25332 32.8792 -0.074146C36.9021 -4.09704 43.4045 -4.55765 48.8169 -2.24582C61.3167 3.09405 61.6063 18.273 49.9924 21.4248Z" fill="#FFFEFD" fill-opacity="0.2"/>
<path d="M39.3801 28.4759C49.6975 18.1585 70.2878 32.5703 63.363 45.2496C60.2076 51.0259 51.985 52.9597 44.6059 48.8428C36.3333 44.2303 33.5799 34.2761 39.3801 28.4759Z" fill="#FFFEFD" fill-opacity="0.2"/>
<path d="M5.57427 -0.0229197C4.5371 1.80558 2.249 4.60343 -0.375973 7.30204C-3.14847 10.1568 -6.29574 12.9012 -8.72881 14.2802C-15.3091 17.9955 -18.848 28.4658 -10.1133 34.1267C-2.03755 39.3593 2.69113 33.8725 10.2051 38.9708C17.7954 44.1271 25.6007 42.4734 29.9576 37.6356C33.9894 33.1576 35.0655 25.9516 30.2719 18.9011C25.1622 11.3898 30.6421 6.67532 25.4096 -1.39615C19.7485 -10.1423 9.28221 -6.56984 5.57427 -0.0229197Z" fill="#FFFEFD" fill-opacity="0.2"/>
<path d="M21.2211 46.6336C24.1395 43.7152 28.339 42.902 32.3231 44.1006C44.1688 47.6657 48.036 65.1328 37.9884 70.6115C25.2843 77.5452 10.9094 56.9454 21.2211 46.6336Z" fill="#FFFEFD" fill-opacity="0.2"/>
<path d="M4.76275 39.5022C16.1723 44.2861 18.2101 62.0289 7.59862 66.4165C-5.18304 71.7021 -17.3641 51.5525 -7.43128 41.6197C-4.2436 38.432 0.425587 37.6834 4.76275 39.5022Z" fill="#FFFEFD" fill-opacity="0.2"/>
</svg>
